<?xml version="1.0" encoding="UTF-8"?>
<svg width="500mm" height="500mm" version="1.1" viewBox="0 0 1771.6535 1771.6535" xmlns="http://www.w3.org/2000/svg">
 <defs>
  <linearGradient id="a" x1="1345.9" x2="121.18" y1="1172.6" y2="199.4" gradientTransform="translate(85.803 120.85)" gradientUnits="userSpaceOnUse">
   <stop stop-color="#c6c7a5" offset="0"/>
   <stop stop-color="#ffffb9" offset="1"/>
  </linearGradient>
 </defs>
 <g transform="translate(0 719.29)">
  <rect y="-719.29" width="1771.7" height="1771.7" fill="#25676e"/>
 </g>
 <rect x="235.66" y="488.23" width="1300.3" height="795.19" ry="53.174" fill="#fdfde2" stroke="url(#a)" stroke-linecap="round" stroke-linejoin="round" stroke-width="10"/>
 <rect x="282.39" y="536.57" width="406.07" height="456.03" ry="47.488" fill="#e5e5a9"/>
 <rect x="760.14" y="589.75" width="676.76" height="36.6" ry="0" fill-opacity=".47353"/>
 <rect x="760.14" y="682.95" width="350.46" height="36.6" ry="0" fill-opacity=".47353"/>
 <rect x="760.14" y="776.15" width="277.95" height="36.6" ry="0" fill-opacity=".47353"/>
 <rect x="760.14" y="869.35" width="430.22" height="36.6" ry="0" fill-opacity=".47353"/>
 <path d="m1327.5 953.42c-0.7296 0.034-1.2206 0.15075-1.6364 0.35825-1.6632 0.83155-1.6629 0.89141-1.9004 1.6637-0.2377 0.77218-0.3551 1.9611-0.3551 1.9611s-10.216-3.982-15.978-2.0219c-5.7617 1.9602-10.041 3.7424-9.1502 8.0785 0.8909 4.3361 4.7542 11.287 4.7542 11.287s5.2867-3.7426 10.811-3.0298c5.5241 0.71291 8.2566 4.5135 9.4446 7.0676 1.1879 2.5542 1.6029 3.1483 1.6029 3.1483s-7.127 1.5435-12.948 0.23669c-5.8211-1.3068-11.467-2.7323-11.467-2.7323s1.1296 3.0298 3.3273 4.396c2.1979 1.3661 9.9785 4.1578 15.562 5.0487 5.5837 0.89101 7.01 1.1901 7.01 1.1901s-0.1796 1.2472-1.8428 2.3162c-1.6632 1.0693-2.8506 1.4239-2.8506 1.4239s-5.7004-1.9012-9.2049-3.0298c-3.5045-1.1285-9.0287-1.9004-9.0287-1.9004s2.4943 5.8823 8.3152 9.3868c5.8212 3.5045 9.0864 4.9303 9.0864 4.9303s-9.9171 11.286-13.837 18.592c-2.423 4.5156-4.1378 8.7965-5.167 11.57-20.744-3.7768-37.079-11.224-39.715-21.339-4.0322-20.833 6.7183-30.58 6.7183-30.58s21.504 1.0109 21.84-8.3974c0.231-6.4682-2.5555-9.2841-7.0492-9.4294-2.0428-0.0669-4.4365 0.4181-7.0615 1.3632-8.4003 3.024-34.609 7.7292-34.609 7.7292l7.7293 3.3607s-16.466 22.175-17.475 26.543c-1.008 4.3681-0.6708 5.3766-0.6708 5.3766s-21.505 36.963-29.569 46.707c-8.0643 9.7444-19.153 19.824-19.153 19.824s23.857 0 30.577-8.4002c6.7202-8.4001 20.498-31.922 20.498-31.922l3.3576 8.4003s-21.505 35.282-29.57 45.362c-8.0642 10.08-19.821 21.506-19.821 21.506s20.493 2.0158 28.222-6.3844c7.7282-8.4001 31.585-47.715 31.585-47.715l5.0425 5.3763s-29.234 50.737-35.954 56.449c-6.7202 5.7122-19.49 19.824-19.49 19.824s18.82 1.6796 27.22-6.3846 40.994-60.481 40.994-60.481l6.7183 2.0157s-37.968 62.497-44.688 69.889c-6.7202 7.3923-17.474 16.801-17.474 16.801s19.492 2.0166 25.204-4.0317c5.7122-6.0482 49.728-74.595 49.728-74.595l7.0554 2.6898s-34.61 55.778-46.37 71.571-19.487 23.182-19.487 23.182 21.506-0.6691 27.891-7.3892c6.3841-6.7202 54.096-83.669 54.096-83.669s7.1135 7.6629 2.4804 22.037c-4.6332 14.374-9.2669 25.064-19.721 35.162-10.454 10.098-11.048 10.811-11.048 10.811h12.116s-8.9096 16.632-12.711 21.621c-3.8016 4.9895-3.801 5.1094-3.801 5.1094s-17.341-2.2583-20.905-1.4268c-3.5639 0.8316-4.9939 3.3242-4.9939 3.3242s-1.1863 6.535 1.3085 9.6239c2.4945 3.0887 3.8008 4.6357 3.8008 4.6357s1.9012-4.9882 7.1282-5.8198c5.2271-0.8316 6.5332-0.2398 6.5332-0.2398s-12.592 13.778-11.879 17.936c0.7129 4.1579 4.752 7.8441 7.2468 8.9133 2.4946 1.0691 3.8038 0.9502 3.8038 0.9502s-2.4948-4.7522 0-8.0785c2.4948-3.3262 7.6018-10.574 7.6018-10.574s0.1166 15.918 3.3243 18.176c3.2077 2.2572 5.9416 2.6148 8.5551 1.4268 2.6137-1.1879 4.1592-2.3771 4.1592-2.3771s-4.0418 0.2375-4.6358-6.2963c-0.594-6.5339-0.8287-19.481-0.8287-19.481s6.0545-1.4258 11.163 0.1182c5.1083 1.5444 8.0785 4.3961 8.0785 4.3961s7.4873-6.6554 7.2498-10.1c-0.2377-3.4451-2.6136-6.178-5.4647-6.178s-15.562 1.3084-15.562 1.3084 3.2064-7.2442 7.6018-12.471c4.3956-5.2271 6.4148-7.2497 6.4148-7.2497s0.7125 2.9723 1.9004 4.7542c1.1881 1.782 2.4956 2.7293 2.4956 2.7293s1.1871-8.9096 2.9692-13.661c1.7819-4.752 7.3649-13.185 7.3649-13.185s0.3811 1.4845 0.8471 3.9222l1.284 8.9498c0.7102 7.1613 0.9117 16.564-0.9441 26.327-3.864 20.328-8.7336 33.934-13.774 36.622-5.0402 2.688-7.7294 3.5307-7.7294 3.5307s5.0422 6.8863 9.0742 6.7183c4.0323-0.1679 13.273-12.262 13.273-12.262s1.2504 7.1145 4.3655 10.416c2.2114 2.344 3.8083 3.6977 6.2205 3.6977 2.4123 0 5.5828-2.9145 6.2206-3.6977 2.866-3.52 4.3685-10.416 4.3685-10.416s9.2408 12.094 13.273 12.262c4.032 0.1678 9.071-6.7183 9.071-6.7183s-2.686-0.8427-7.7262-3.5307c-5.04-2.6882-9.9127-16.293-13.777-36.622-1.8577-9.7729-1.6471-19.184-0.9351-26.348l1.272-8.8892c0.4689-2.4581 0.8532-3.9617 0.8532-3.9617s5.5799 8.4328 7.3619 13.185c1.7819 4.7518 2.9721 13.661 2.9721 13.661s1.3075-0.9473 2.4955-2.7293c1.188-1.7819 1.9004-4.7542 1.9004-4.7542s2.0195 2.0226 6.4149 7.2497 7.6018 12.471 7.6018 12.471-12.711-1.3084-15.562-1.3084-5.227 2.7329-5.4645 6.178c-0.2377 3.4451 7.2466 10.1 7.2466 10.1s2.9702-2.8517 8.0786-4.3961c5.1081-1.5443 11.166-0.1182 11.166-0.1182s-0.2346 12.948-0.8288 19.481c-0.5939 6.5338-4.6357 6.2963-4.6357 6.2963s1.5456 1.1892 4.1592 2.3771c2.6135 1.188 5.3476 0.8304 8.5551-1.4268 3.2074-2.2573 3.3242-18.176 3.3242-18.176s5.1102 7.2477 7.6048 10.574c2.4948 3.3263 0 8.0785 0 8.0785s1.3032 0.1197 3.798-0.9502c2.4947-1.0692 6.5368-4.7554 7.2498-8.9133 0.7126-4.158-11.883-17.936-11.883-17.936s1.3061-0.5918 6.5333 0.2398c5.227 0.8316 7.1282 5.8198 7.1282 5.8198s1.3092-1.547 3.804-4.6357c2.4948-3.0889 1.3054-9.6239 1.3054-9.6239s-1.424-2.4926-4.988-3.3242c-3.5638-0.8315-20.908 1.4268-20.908 1.4268s0-0.1197-3.804-5.1094c-3.8015-4.9893-12.708-21.621-12.708-21.621h12.113s-0.5935-0.713-11.048-10.811c-10.454-10.098-15.085-20.787-19.718-35.162-4.633-14.374 2.4803-22.037 2.4803-22.037s47.712 76.949 54.096 83.669c6.384 6.7201 27.89 7.3892 27.89 7.3892s-7.7299-7.3894-19.49-23.182c-11.76-15.792-46.367-71.571-46.367-71.571l7.0552-2.6898s44.019 68.546 49.731 74.595c5.7121 6.0483 25.198 4.0317 25.198 4.0317s-10.751-9.4084-17.472-16.801c-6.7201-7.392-44.688-69.889-44.688-69.889l6.7214-2.0157s32.59 52.417 40.99 60.481c8.4003 8.0642 27.217 6.3846 27.217 6.3846s-12.767-14.112-19.488-19.824c-6.7202-5.7121-35.951-56.449-35.951-56.449l5.0365-5.3763s23.857 39.315 31.585 47.715c7.7282 8.4003 28.228 6.3844 28.228 6.3844s-11.763-11.426-19.827-21.506c-8.0643-10.08-29.57-45.362-29.57-45.362l3.3639-8.4003s13.775 23.522 20.495 31.922c6.7202 8.4002 30.577 8.4002 30.577 8.4002s-11.092-10.08-19.156-19.824c-8.0642-9.7441-29.566-46.707-29.566-46.707s0.3372-1.0085-0.6708-5.3766c-1.008-4.368-17.472-26.543-17.472-26.543l7.7263-3.3607s-26.209-4.7052-34.609-7.7292c-8.4001-3.0242-14.45-1.3421-14.114 8.0662 0.3358 9.4083 21.843 8.3974 21.843 8.3974s10.75 9.7477 6.7184 30.58c-6.5621 12.18-24.065 19.334-44.597 22.38-0.6464-1.6683-1.6208-3.8028-3.0843-6.3752-3.9203-6.8905-7.6051-7.4854-3.9225-19.603 3.6828-12.117 7.0105-19.007 7.7233-25.659 0.7129-6.6526 1.3073-10.218-1.0686-14.138-2.376-3.9203-4.0407-6.2934-4.0407-6.2934s1.9013-1.5453 3.4457-3.3273c1.5443-1.7819 2.3771-3.801 2.3771-3.801s-0.3579 1.9003-14.97 0.11815c-10.959-1.3366-15.301-2.0037-17.49-1.9037z" fill="#858577" fill-rule="evenodd"/>
 <circle cx="485.43" cy="710.6" r="68.884" fill="#d8d87d"/>
 <path d="m385.48 820.57c-26.308 0-47.488 21.18-47.488 47.488v124.55h294.87v-124.55c0-26.308-21.18-47.488-47.488-47.488h-199.9z" fill="#d8d87d"/>
 <rect x="282.39" y="536.57" width="406.07" height="456.03" ry="47.488" fill="none" stroke="#dbdbb7" stroke-linecap="round" stroke-linejoin="round" stroke-width="5"/>
 <rect x="560.72" y="917.91" width="6.409" height="72.101" ry="0" fill="#e5e5a9"/>
 <rect x="403.72" y="917.91" width="6.409" height="72.101" ry="0" fill="#e5e5a9"/>
</svg>
